<svg viewBox="0 0 330 200" xmlns="http://www.w3.org/2000/svg"><g><g><g><g><g><line x1="58.59375" y1="177.828125" x2="53.59375" y2="177.828125" style="visibility: inherit;" fill="rgb(0, 0, 0)" stroke="rgb(204, 204, 204)" stroke-width="1px"></line><line x1="58.59375" y1="165.97291666666666" x2="53.59375" y2="165.97291666666666" style="visibility: inherit;" fill="rgb(0, 0, 0)" stroke="rgb(204, 204, 204)" stroke-width="1px"></line><line x1="58.59375" y1="154.11770833333333" x2="53.59375" y2="154.11770833333333" style="visibility: inherit;" fill="rgb(0, 0, 0)" stroke="rgb(204, 204, 204)" stroke-width="1px"></line><line x1="58.59375" y1="142.2625" x2="53.59375" y2="142.2625" style="visibility: inherit;" fill="rgb(0, 0, 0)" stroke="rgb(204, 204, 204)" stroke-width="1px"></line><line x1="58.59375" y1="130.40729166666665" x2="53.59375" y2="130.40729166666665" style="visibility: inherit;" fill="rgb(0, 0, 0)" stroke="rgb(204, 204, 204)" stroke-width="1px"></line><line x1="58.59375" y1="118.55208333333334" x2="53.59375" y2="118.55208333333334" style="visibility: inherit;" fill="rgb(0, 0, 0)" stroke="rgb(204, 204, 204)" stroke-width="1px"></line><line x1="58.59375" y1="106.69687499999999" x2="53.59375" y2="106.69687499999999" style="visibility: inherit;" fill="rgb(0, 0, 0)" stroke="rgb(204, 204, 204)" stroke-width="1px"></line><line x1="58.59375" y1="94.84166666666667" x2="53.59375" y2="94.84166666666667" style="visibility: inherit;" fill="rgb(0, 0, 0)" stroke="rgb(204, 204, 204)" stroke-width="1px"></line><line x1="58.59375" y1="82.98645833333333" x2="53.59375" y2="82.98645833333333" style="visibility: inherit;" fill="rgb(0, 0, 0)" stroke="rgb(204, 204, 204)" stroke-width="1px"></line><line x1="58.59375" y1="71.13125000000001" x2="53.59375" y2="71.13125000000001" style="visibility: inherit;" fill="rgb(0, 0, 0)" stroke="rgb(204, 204, 204)" stroke-width="1px"></line><line x1="58.59375" y1="59.27604166666667" x2="53.59375" y2="59.27604166666667" style="visibility: inherit;" fill="rgb(0, 0, 0)" stroke="rgb(204, 204, 204)" stroke-width="1px"></line><line x1="58.59375" y1="47.42083333333335" x2="53.59375" y2="47.42083333333335" style="visibility: inherit;" fill="rgb(0, 0, 0)" stroke="rgb(204, 204, 204)" stroke-width="1px"></line><line x1="58.59375" y1="35.56562499999998" x2="53.59375" y2="35.56562499999998" style="visibility: inherit;" fill="rgb(0, 0, 0)" stroke="rgb(204, 204, 204)" stroke-width="1px"></line><line x1="58.59375" y1="23.710416666666674" x2="53.59375" y2="23.710416666666674" style="visibility: inherit;" fill="rgb(0, 0, 0)" stroke="rgb(204, 204, 204)" stroke-width="1px"></line><line x1="58.59375" y1="11.855208333333337" x2="53.59375" y2="11.855208333333337" style="visibility: inherit;" fill="rgb(0, 0, 0)" stroke="rgb(204, 204, 204)" stroke-width="1px"></line><line x1="58.59375" y1="0" x2="53.59375" y2="0" style="visibility: inherit;" fill="rgb(0, 0, 0)" stroke="rgb(204, 204, 204)" stroke-width="1px"></line></g><g transform="translate(48.59375, 0)"><text x="0" y="177.828125" dx="0em" dy="0.3em" style="text-anchor: end; visibility: hidden; font-family: &quot;Helvetica Neue&quot;, sans-serif; font-size: 12px; font-weight: 200;" fill="rgb(50, 49, 63)" stroke="none" stroke-width="1px">0.488</text><text x="0" y="165.97291666666666" dx="0em" dy="0.3em" style="text-anchor: end; visibility: inherit; font-family: &quot;Helvetica Neue&quot;, sans-serif; font-size: 12px; font-weight: 200;" fill="rgb(50, 49, 63)" stroke="none" stroke-width="1px">0.49</text><text x="0" y="154.11770833333333" dx="0em" dy="0.3em" style="text-anchor: end; visibility: hidden; font-family: &quot;Helvetica Neue&quot;, sans-serif; font-size: 12px; font-weight: 200;" fill="rgb(50, 49, 63)" stroke="none" stroke-width="1px">0.492</text><text x="0" y="142.2625" dx="0em" dy="0.3em" style="text-anchor: end; visibility: inherit; font-family: &quot;Helvetica Neue&quot;, sans-serif; font-size: 12px; font-weight: 200;" fill="rgb(50, 49, 63)" stroke="none" stroke-width="1px">0.494</text><text x="0" y="130.40729166666665" dx="0em" dy="0.3em" style="text-anchor: end; visibility: hidden; font-family: &quot;Helvetica Neue&quot;, sans-serif; font-size: 12px; font-weight: 200;" fill="rgb(50, 49, 63)" stroke="none" stroke-width="1px">0.496</text><text x="0" y="118.55208333333334" dx="0em" dy="0.3em" style="text-anchor: end; visibility: inherit; font-family: &quot;Helvetica Neue&quot;, sans-serif; font-size: 12px; font-weight: 200;" fill="rgb(50, 49, 63)" stroke="none" stroke-width="1px">0.498</text><text x="0" y="106.69687499999999" dx="0em" dy="0.3em" style="text-anchor: end; visibility: hidden; font-family: &quot;Helvetica Neue&quot;, sans-serif; font-size: 12px; font-weight: 200;" fill="rgb(50, 49, 63)" stroke="none" stroke-width="1px">0.5</text><text x="0" y="94.84166666666667" dx="0em" dy="0.3em" style="text-anchor: end; visibility: inherit; font-family: &quot;Helvetica Neue&quot;, sans-serif; font-size: 12px; font-weight: 200;" fill="rgb(50, 49, 63)" stroke="none" stroke-width="1px">0.502</text><text x="0" y="82.98645833333333" dx="0em" dy="0.3em" style="text-anchor: end; visibility: hidden; font-family: &quot;Helvetica Neue&quot;, sans-serif; font-size: 12px; font-weight: 200;" fill="rgb(50, 49, 63)" stroke="none" stroke-width="1px">0.504</text><text x="0" y="71.13125000000001" dx="0em" dy="0.3em" style="text-anchor: end; visibility: inherit; font-family: &quot;Helvetica Neue&quot;, sans-serif; font-size: 12px; font-weight: 200;" fill="rgb(50, 49, 63)" stroke="none" stroke-width="1px">0.506</text><text x="0" y="59.27604166666667" dx="0em" dy="0.3em" style="text-anchor: end; visibility: hidden; font-family: &quot;Helvetica Neue&quot;, sans-serif; font-size: 12px; font-weight: 200;" fill="rgb(50, 49, 63)" stroke="none" stroke-width="1px">0.508</text><text x="0" y="47.42083333333335" dx="0em" dy="0.3em" style="text-anchor: end; visibility: inherit; font-family: &quot;Helvetica Neue&quot;, sans-serif; font-size: 12px; font-weight: 200;" fill="rgb(50, 49, 63)" stroke="none" stroke-width="1px">0.51</text><text x="0" y="35.56562499999998" dx="0em" dy="0.3em" style="text-anchor: end; visibility: hidden; font-family: &quot;Helvetica Neue&quot;, sans-serif; font-size: 12px; font-weight: 200;" fill="rgb(50, 49, 63)" stroke="none" stroke-width="1px">0.512</text><text x="0" y="23.710416666666674" dx="0em" dy="0.3em" style="text-anchor: end; visibility: inherit; font-family: &quot;Helvetica Neue&quot;, sans-serif; font-size: 12px; font-weight: 200;" fill="rgb(50, 49, 63)" stroke="none" stroke-width="1px">0.514</text><text x="0" y="11.855208333333337" dx="0em" dy="0.3em" style="text-anchor: end; visibility: hidden; font-family: &quot;Helvetica Neue&quot;, sans-serif; font-size: 12px; font-weight: 200;" fill="rgb(50, 49, 63)" stroke="none" stroke-width="1px">0.516</text><text x="0" y="0" dx="0em" dy="0.3em" style="text-anchor: end; visibility: hidden; font-family: &quot;Helvetica Neue&quot;, sans-serif; font-size: 12px; font-weight: 200;" fill="rgb(50, 49, 63)" stroke="none" stroke-width="1px">0.518</text></g><line x1="58.59375" y1="0" x2="58.59375" y2="177.828125" fill="rgb(0, 0, 0)" stroke="rgb(204, 204, 204)" stroke-width="1px"></line></g></g><g transform="translate(58, 0)" clip-path="url(#clip_0)"><clipPath id="clip_0"><rect width="271" height="177"></rect></clipPath><g><g><g><line x1="0" y1="0" x2="0" y2="177.828125" fill="rgb(0, 0, 0)" stroke="rgb(60, 60, 60)" stroke-width="1px" opacity="0.25"></line><line x1="33.92578125" y1="0" x2="33.92578125" y2="177.828125" fill="rgb(0, 0, 0)" stroke="rgb(60, 60, 60)" stroke-width="1px" opacity="0.25"></line><line x1="67.8515625" y1="0" x2="67.8515625" y2="177.828125" fill="rgb(0, 0, 0)" stroke="rgb(60, 60, 60)" stroke-width="1px" opacity="0.25"></line><line x1="101.77734375" y1="0" x2="101.77734375" y2="177.828125" fill="rgb(0, 0, 0)" stroke="rgb(60, 60, 60)" stroke-width="1px" opacity="0.25"></line><line x1="135.703125" y1="0" x2="135.703125" y2="177.828125" fill="rgb(0, 0, 0)" stroke="rgb(60, 60, 60)" stroke-width="1px" opacity="0.25"></line><line x1="169.62890625" y1="0" x2="169.62890625" y2="177.828125" fill="rgb(0, 0, 0)" stroke="rgb(60, 60, 60)" stroke-width="1px" opacity="0.25"></line><line x1="203.5546875" y1="0" x2="203.5546875" y2="177.828125" fill="rgb(0, 0, 0)" stroke="rgb(60, 60, 60)" stroke-width="1px" opacity="0.25"></line><line x1="237.48046875" y1="0" x2="237.48046875" y2="177.828125" fill="rgb(0, 0, 0)" stroke="rgb(60, 60, 60)" stroke-width="1px" opacity="0.25"></line><line x1="271.40625" y1="0" x2="271.40625" y2="177.828125" fill="rgb(0, 0, 0)" stroke="rgb(60, 60, 60)" stroke-width="1px" opacity="0.25"></line></g><g><line x1="0" y1="177.828125" x2="271.40625" y2="177.828125" fill="rgb(0, 0, 0)" stroke="rgb(60, 60, 60)" stroke-width="1px" opacity="0.25"></line><line x1="0" y1="165.97291666666666" x2="271.40625" y2="165.97291666666666" fill="rgb(0, 0, 0)" stroke="rgb(60, 60, 60)" stroke-width="1px" opacity="0.25"></line><line x1="0" y1="154.11770833333333" x2="271.40625" y2="154.11770833333333" fill="rgb(0, 0, 0)" stroke="rgb(60, 60, 60)" stroke-width="1px" opacity="0.25"></line><line x1="0" y1="142.2625" x2="271.40625" y2="142.2625" fill="rgb(0, 0, 0)" stroke="rgb(60, 60, 60)" stroke-width="1px" opacity="0.25"></line><line x1="0" y1="130.40729166666665" x2="271.40625" y2="130.40729166666665" fill="rgb(0, 0, 0)" stroke="rgb(60, 60, 60)" stroke-width="1px" opacity="0.25"></line><line x1="0" y1="118.55208333333334" x2="271.40625" y2="118.55208333333334" fill="rgb(0, 0, 0)" stroke="rgb(60, 60, 60)" stroke-width="1px" opacity="0.25"></line><line x1="0" y1="106.69687499999999" x2="271.40625" y2="106.69687499999999" fill="rgb(0, 0, 0)" stroke="rgb(60, 60, 60)" stroke-width="1px" opacity="0.25"></line><line x1="0" y1="94.84166666666667" x2="271.40625" y2="94.84166666666667" fill="rgb(0, 0, 0)" stroke="rgb(60, 60, 60)" stroke-width="1px" opacity="0.25"></line><line x1="0" y1="82.98645833333333" x2="271.40625" y2="82.98645833333333" fill="rgb(0, 0, 0)" stroke="rgb(60, 60, 60)" stroke-width="1px" opacity="0.25"></line><line x1="0" y1="71.13125000000001" x2="271.40625" y2="71.13125000000001" fill="rgb(0, 0, 0)" stroke="rgb(60, 60, 60)" stroke-width="1px" opacity="0.25"></line><line x1="0" y1="59.27604166666667" x2="271.40625" y2="59.27604166666667" fill="rgb(0, 0, 0)" stroke="rgb(60, 60, 60)" stroke-width="1px" opacity="0.25"></line><line x1="0" y1="47.42083333333335" x2="271.40625" y2="47.42083333333335" fill="rgb(0, 0, 0)" stroke="rgb(60, 60, 60)" stroke-width="1px" opacity="0.25"></line><line x1="0" y1="35.56562499999998" x2="271.40625" y2="35.56562499999998" fill="rgb(0, 0, 0)" stroke="rgb(60, 60, 60)" stroke-width="1px" opacity="0.25"></line><line x1="0" y1="23.710416666666674" x2="271.40625" y2="23.710416666666674" fill="rgb(0, 0, 0)" stroke="rgb(60, 60, 60)" stroke-width="1px" opacity="0.25"></line><line x1="0" y1="11.855208333333337" x2="271.40625" y2="11.855208333333337" fill="rgb(0, 0, 0)" stroke="rgb(60, 60, 60)" stroke-width="1px" opacity="0.25"></line><line x1="0" y1="0" x2="271.40625" y2="0" fill="rgb(0, 0, 0)" stroke="rgb(60, 60, 60)" stroke-width="1px" opacity="0.25"></line></g></g></g><g><g><line x1="0" y1="3070.498958333331" x2="271.40625" y2="3070.498958333331" fill="rgb(0, 0, 0)" stroke="rgb(153, 153, 153)" stroke-width="1.5px"></line></g></g><g><g><line x1="33.92578125" y1="0" x2="33.92578125" y2="177.828125" fill="rgb(0, 0, 0)" stroke="rgb(153, 153, 153)" stroke-width="1.5px"></line></g></g><g><g><g><g><g><path stroke="rgb(255, 112, 67)" stroke-width="2px" d="M33.942744140624995,289.52190915830454L35.639033203125,175.02575172532644L37.335322265625,149.0819502481393L39.031611328125,142.98506097516423L40.727900390624995,138.7491015108571L42.424189453124995,145.23602574304604L44.120478515625,142.29082103411662L45.816767578125,138.760494068723L47.513056640625,135.38208062933413L49.209345703124995,145.2003840852908L50.905634765624995,145.85750001655876L52.601923828125,145.00068360531645L54.298212890625,144.88065379900644L55.994501953125,143.20974308554577L57.690791015624995,142.06741929826705L59.387080078124995,141.06289674822773L61.083369140625,138.51885203123894L62.779658203125,136.87394667431528L64.47594726562501,136.9364479966855L66.172236328125,104.25234145761958L67.86852539062501,96.21049338590586L69.564814453125,94.61334943878606L71.261103515625,94.81260204811825L72.95739257812501,94.7687512040637L74.653681640625,97.04997355782999L76.34997070312501,95.91283642916088L78.046259765625,93.67129672075771L79.742548828125,92.61079142509996L81.43883789062501,106.02489912700672L83.135126953125,105.26511793745159L84.83141601562501,101.95212739113703L86.527705078125,97.20714419025872L88.223994140625,92.89570621859652L89.92028320312501,89.93213017042466L91.616572265625,86.82534861372682L93.31286132812501,83.5779144316621L95.009150390625,81.13906154164795L96.705439453125,78.4135205536464L98.40172851562501,77.5627175221659L100.098017578125,49.3453523674803L101.79430664062501,39.234730056252346L103.490595703125,36.55224158932606L105.186884765625,36.427869394058405L106.88317382812501,37.459222782344256L108.579462890625,38.18140407381665L110.27575195312501,39.27554598411925L111.972041015625,39.73882468671468L113.668330078125,39.47517309816456L115.36461914062501,69.07632639370424L117.060908203125,74.54787572859347L118.75719726562501,73.33874267435638L120.453486328125,70.00100348737345L122.149775390625,67.3752910745287L123.84606445312501,65.18082734221142L125.542353515625,61.73841915689117L127.23864257812501,60.75738635526305L128.934931640625,43.811835688500395L130.631220703125,31.811402294606125L132.327509765625,29.59081720386527L134.023798828125,31.569964828987253L135.720087890625,33.8420152975072L137.41637695312502,35.919993051949604L139.112666015625,38.23010140249539L140.808955078125,39.01439458858795L142.505244140625,39.2744144362664L144.201533203125,23.87544978936441L145.89782226562502,22.59184528702488L147.594111328125,24.528346624341623L149.290400390625,26.683976579666563L150.986689453125,27.93016662472317L152.682978515625,29.648449279240253L154.37926757812502,30.23046286467394L156.075556640625,31.624843846376848L157.771845703125,32.42279268079494L159.468134765625,19.61684633666829L161.164423828125,21.87444160163301L162.86071289062502,24.520626091350806L164.557001953125,26.99278761924998L166.253291015625,29.983554322516255L167.949580078125,31.725131121276775L169.645869140625,33.708022374684475L171.34215820312502,34.27172756697479L173.038447265625,35.71898329550268L174.734736328125,31.200845989890865L176.431025390625,30.347462202775176L178.127314453125,31.008505616461917L179.82360351562502,32.17581416327545L181.519892578125,32.18767444680276L183.216181640625,32.77836764439479L184.912470703125,33.403717484005796L186.608759765625,33.56016025215777L188.30504882812502,35.05737122072415L190.001337890625,35.1061251822328L191.697626953125,37.160143172687526L193.393916015625,37.309410451684585L195.090205078125,36.68222513380206L196.78649414062502,35.85499745301706L198.482783203125,36.428422596059676L200.179072265625,37.15840161912226L201.875361328125,36.67426764072761L203.571650390625,35.86497615102013L205.26793945312502,41.694857429111266L206.964228515625,43.52049067727526L208.660517578125,44.6014002400245L210.356806640625,43.86343835386458L212.053095703125,44.73544672673276L213.74938476562502,44.09853960766026L215.445673828125,43.79543200185489L217.141962890625,44.895587631639785L218.838251953125,44.999337510142254L220.534541015625,44.3397007343045L222.23083007812502,44.49448647934301L223.927119140625,43.706962809652026L225.623408203125,42.82965507197619L227.319697265625,42.34239181050623L229.015986328125,41.301907622747024L230.71227539062502,41.37162277659252L232.408564453125,40.98792357206975L234.104853515625,41.638265863490574L235.801142578125,39.16331350672249L237.497431640625,39.54316105187377L239.19372070312502,40.86873069718129L240.890009765625,41.80580415203582L242.586298828125,43.17611870559435L244.282587890625,43.155641558868155L245.978876953125,43.97109186212822L247.67516601562502,44.219931374720574L249.371455078125,44.98336641653816L251.067744140625,45.417918950362605L252.764033203125,45.05018440863847" style="fill: none;" fill="none"></path></g></g></g></g><g opacity="0.20000000298023224"><g><g><g><path stroke="rgb(255, 112, 67)" stroke-width="2px" d="M33.942744140624995,289.5219091583042L35.639033203125,140.67690449543295L37.335322265625,138.96386767203606L39.031611328125,140.4426581483334L40.727900390624995,136.94839514258004L42.424189453124995,148.00938046003378L44.120478515625,141.02951061067478L45.816767578125,137.24782769034303L47.513056640625,133.93428415146963L49.209345703124995,149.4081456005573L50.905634765624995,146.13911946701504L52.601923828125,144.63347722242273L54.298212890625,144.82921248078344L55.994501953125,142.49363860823212L57.690791015624995,141.57785198427734L59.387080078124995,140.63238709010182L61.083369140625,137.428547157223L62.779658203125,136.16898723654447L64.47594726562501,136.96323427769042L66.172236328125,90.24486722821992L67.86852539062501,92.763987069577L69.564814453125,93.92885917574169L71.261103515625,94.89799602354567L72.95739257812501,94.74995798518262L74.653681640625,98.02764028087259L76.34997070312501,95.42549194544554L78.046259765625,92.71063684572778L79.742548828125,92.15628915553293L81.43883789062501,111.77380242782334L83.135126953125,104.93949742764235L84.83141601562501,100.53227429986L86.527705078125,95.17357996130984L88.223994140625,91.04794708788397L89.92028320312501,88.66202614977958L91.616572265625,85.49387080371382L93.31286132812501,82.18615692506236L95.009150390625,80.09383887449903L96.705439453125,77.24543155878786L98.40172851562501,77.19808765153093L100.098017578125,37.252195872614834L101.79430664062501,34.90160620858279L103.490595703125,35.4026036749284L105.186884765625,36.37456702465818L106.88317382812501,37.90123137732354L108.579462890625,38.490910341590705L110.27575195312501,39.744463945676955L111.972041015625,39.93737270211187L113.668330078125,39.362179560214344L115.36461914062501,81.76253494893514L117.060908203125,76.892825443546L118.75719726562501,72.82054279396934L120.453486328125,68.57054383580886L122.149775390625,66.24998575473829L123.84606445312501,64.2403428855042L125.542353515625,60.2631013631821L127.23864257812501,60.33694372599328L128.934931640625,36.549456831316206L130.631220703125,26.668359411507907L132.327509765625,28.63913787926242L134.023798828125,32.41817095403877L135.720087890625,34.81575121258703L137.41637695312502,36.81055494671074L139.112666015625,39.22014783844358L140.808955078125,39.350520239770475L142.505244140625,39.385851513842795L144.201533203125,17.27589351211995L145.89782226562502,22.0417290717364L147.594111328125,25.35827576890594L149.290400390625,27.60781798909113L150.986689453125,28.46424807260439L152.682978515625,30.384856131176207L154.37926757812502,30.479897258430782L156.075556640625,32.22243569567806L157.771845703125,32.76477075268832L159.468134765625,14.128583617756846L161.164423828125,22.841982429474655L162.86071289062502,25.654705158372792L164.557001953125,28.052285416921052L166.253291015625,31.26531148105866L167.949580078125,32.47152117788798L169.645869140625,34.55783291185901L171.34215820312502,34.513315506527874L173.038447265625,36.33923575058586L174.734736328125,29.264501430342648L176.431025390625,29.98172629401094L178.127314453125,31.291809936612907L179.82360351562502,32.676089254766765L181.519892578125,32.1927574254573L183.216181640625,33.03152187193439L184.912470703125,33.67172455812499L186.608759765625,33.62720715279386L188.30504882812502,35.69903306439525L190.001337890625,35.12701973716423L191.697626953125,38.04043659716851L193.393916015625,37.37338214268294L195.090205078125,36.41343142613775L196.78649414062502,35.50047130410877L198.482783203125,36.67417622879154L200.179072265625,37.471249771863285L201.875361328125,36.466781649986956L203.571650390625,35.51813694114492L205.26793945312502,44.19337797686464L206.964228515625,44.30290492648885L208.660517578125,45.06464719548828L210.356806640625,43.54716897408173L212.053095703125,45.10916460081941L213.74938476562502,43.82557941377169L215.445673828125,43.66552874222404L217.141962890625,45.367082901547406L218.838251953125,45.04380174378559L220.534541015625,44.05699925894544L222.23083007812502,44.560823227216844L223.927119140625,43.3694526654979L225.623408203125,42.45366604154313L227.319697265625,42.13356469844783L229.015986328125,40.85598582799241L230.71227539062502,41.401500699669185L232.408564453125,40.82348105584586L234.104853515625,41.91698398838446L235.801142578125,38.10261963953582L237.497431640625,39.7059528569381L239.19372070312502,41.436831973741505L240.890009765625,42.207407061259005L242.586298828125,43.76339637140438L244.282587890625,43.14686563884223L245.978876953125,44.320570563525024L247.67516601562502,44.3265768801173L249.371455078125,45.31055286303169L251.067744140625,45.604155750572744L252.764033203125,44.892583890756015" style="fill: none;" fill="none"></path></g></g></g></g></g></g><g transform="translate(58, 177)" clip-path="url(#clip_1)"><clipPath id="clip_1"><rect width="271" height="22"></rect></clipPath><g><g><line x1="0" y1="0" x2="0" y2="5" style="visibility: inherit;" fill="rgb(0, 0, 0)" stroke="rgb(204, 204, 204)" stroke-width="1px"></line><line x1="33.92578125" y1="0" x2="33.92578125" y2="5" style="visibility: inherit;" fill="rgb(0, 0, 0)" stroke="rgb(204, 204, 204)" stroke-width="1px"></line><line x1="67.8515625" y1="0" x2="67.8515625" y2="5" style="visibility: inherit;" fill="rgb(0, 0, 0)" stroke="rgb(204, 204, 204)" stroke-width="1px"></line><line x1="101.77734375" y1="0" x2="101.77734375" y2="5" style="visibility: inherit;" fill="rgb(0, 0, 0)" stroke="rgb(204, 204, 204)" stroke-width="1px"></line><line x1="135.703125" y1="0" x2="135.703125" y2="5" style="visibility: inherit;" fill="rgb(0, 0, 0)" stroke="rgb(204, 204, 204)" stroke-width="1px"></line><line x1="169.62890625" y1="0" x2="169.62890625" y2="5" style="visibility: inherit;" fill="rgb(0, 0, 0)" stroke="rgb(204, 204, 204)" stroke-width="1px"></line><line x1="203.5546875" y1="0" x2="203.5546875" y2="5" style="visibility: inherit;" fill="rgb(0, 0, 0)" stroke="rgb(204, 204, 204)" stroke-width="1px"></line><line x1="237.48046875" y1="0" x2="237.48046875" y2="5" style="visibility: inherit;" fill="rgb(0, 0, 0)" stroke="rgb(204, 204, 204)" stroke-width="1px"></line><line x1="271.40625" y1="0" x2="271.40625" y2="5" style="visibility: inherit;" fill="rgb(0, 0, 0)" stroke="rgb(204, 204, 204)" stroke-width="1px"></line></g><g transform="translate(0, 8)"><text x="0" y="0" dx="0em" dy="0.95em" style="text-anchor: middle; visibility: hidden; font-family: &quot;Helvetica Neue&quot;, sans-serif; font-size: 12px; font-weight: 200;" fill="rgb(50, 49, 63)" stroke="none" stroke-width="1px">-2k</text><text x="33.92578125" y="0" dx="0em" dy="0.95em" style="text-anchor: middle; visibility: inherit; font-family: &quot;Helvetica Neue&quot;, sans-serif; font-size: 12px; font-weight: 200;" fill="rgb(50, 49, 63)" stroke="none" stroke-width="1px">0</text><text x="67.8515625" y="0" dx="0em" dy="0.95em" style="text-anchor: middle; visibility: inherit; font-family: &quot;Helvetica Neue&quot;, sans-serif; font-size: 12px; font-weight: 200;" fill="rgb(50, 49, 63)" stroke="none" stroke-width="1px">2k</text><text x="101.77734375" y="0" dx="0em" dy="0.95em" style="text-anchor: middle; visibility: inherit; font-family: &quot;Helvetica Neue&quot;, sans-serif; font-size: 12px; font-weight: 200;" fill="rgb(50, 49, 63)" stroke="none" stroke-width="1px">4k</text><text x="135.703125" y="0" dx="0em" dy="0.95em" style="text-anchor: middle; visibility: inherit; font-family: &quot;Helvetica Neue&quot;, sans-serif; font-size: 12px; font-weight: 200;" fill="rgb(50, 49, 63)" stroke="none" stroke-width="1px">6k</text><text x="169.62890625" y="0" dx="0em" dy="0.95em" style="text-anchor: middle; visibility: inherit; font-family: &quot;Helvetica Neue&quot;, sans-serif; font-size: 12px; font-weight: 200;" fill="rgb(50, 49, 63)" stroke="none" stroke-width="1px">8k</text><text x="203.5546875" y="0" dx="0em" dy="0.95em" style="text-anchor: middle; visibility: inherit; font-family: &quot;Helvetica Neue&quot;, sans-serif; font-size: 12px; font-weight: 200;" fill="rgb(50, 49, 63)" stroke="none" stroke-width="1px">10k</text><text x="237.48046875" y="0" dx="0em" dy="0.95em" style="text-anchor: middle; visibility: inherit; font-family: &quot;Helvetica Neue&quot;, sans-serif; font-size: 12px; font-weight: 200;" fill="rgb(50, 49, 63)" stroke="none" stroke-width="1px">12k</text><text x="271.40625" y="0" dx="0em" dy="0.95em" style="text-anchor: middle; visibility: hidden; font-family: &quot;Helvetica Neue&quot;, sans-serif; font-size: 12px; font-weight: 200;" fill="rgb(50, 49, 63)" stroke="none" stroke-width="1px">14k</text></g><line x1="0" y1="0" x2="271.40625" y2="0" fill="rgb(0, 0, 0)" stroke="rgb(204, 204, 204)" stroke-width="1px"></line></g></g></g></g></svg>