<svg viewBox="0 0 330 200" xmlns="http://www.w3.org/2000/svg"><g><g><g><g><g><line x1="58.59375" y1="177.828125" x2="53.59375" y2="177.828125" style="visibility: inherit;" fill="rgb(0, 0, 0)" stroke="rgb(204, 204, 204)" stroke-width="1px"></line><line x1="58.59375" y1="160.0453125" x2="53.59375" y2="160.0453125" style="visibility: inherit;" fill="rgb(0, 0, 0)" stroke="rgb(204, 204, 204)" stroke-width="1px"></line><line x1="58.59375" y1="142.2625" x2="53.59375" y2="142.2625" style="visibility: inherit;" fill="rgb(0, 0, 0)" stroke="rgb(204, 204, 204)" stroke-width="1px"></line><line x1="58.59375" y1="124.47968750000001" x2="53.59375" y2="124.47968750000001" style="visibility: inherit;" fill="rgb(0, 0, 0)" stroke="rgb(204, 204, 204)" stroke-width="1px"></line><line x1="58.59375" y1="106.69687499999999" x2="53.59375" y2="106.69687499999999" style="visibility: inherit;" fill="rgb(0, 0, 0)" stroke="rgb(204, 204, 204)" stroke-width="1px"></line><line x1="58.59375" y1="88.91406249999999" x2="53.59375" y2="88.91406249999999" style="visibility: inherit;" fill="rgb(0, 0, 0)" stroke="rgb(204, 204, 204)" stroke-width="1px"></line><line x1="58.59375" y1="71.13124999999998" x2="53.59375" y2="71.13124999999998" style="visibility: inherit;" fill="rgb(0, 0, 0)" stroke="rgb(204, 204, 204)" stroke-width="1px"></line><line x1="58.59375" y1="53.3484375" x2="53.59375" y2="53.3484375" style="visibility: inherit;" fill="rgb(0, 0, 0)" stroke="rgb(204, 204, 204)" stroke-width="1px"></line><line x1="58.59375" y1="35.56562499999998" x2="53.59375" y2="35.56562499999998" style="visibility: inherit;" fill="rgb(0, 0, 0)" stroke="rgb(204, 204, 204)" stroke-width="1px"></line><line x1="58.59375" y1="17.782812500000006" x2="53.59375" y2="17.782812500000006" style="visibility: inherit;" fill="rgb(0, 0, 0)" stroke="rgb(204, 204, 204)" stroke-width="1px"></line><line x1="58.59375" y1="0" x2="53.59375" y2="0" style="visibility: inherit;" fill="rgb(0, 0, 0)" stroke="rgb(204, 204, 204)" stroke-width="1px"></line></g><g transform="translate(48.59375, 0)"><text x="0" y="177.828125" dx="0em" dy="0.3em" style="text-anchor: end; visibility: hidden; font-family: &quot;Helvetica Neue&quot;, sans-serif; font-size: 12px; font-weight: 200;" fill="rgb(50, 49, 63)" stroke="none" stroke-width="1px">-5e-3</text><text x="0" y="160.0453125" dx="0em" dy="0.3em" style="text-anchor: end; visibility: inherit; font-family: &quot;Helvetica Neue&quot;, sans-serif; font-size: 12px; font-weight: 200;" fill="rgb(50, 49, 63)" stroke="none" stroke-width="1px">0</text><text x="0" y="142.2625" dx="0em" dy="0.3em" style="text-anchor: end; visibility: hidden; font-family: &quot;Helvetica Neue&quot;, sans-serif; font-size: 12px; font-weight: 200;" fill="rgb(50, 49, 63)" stroke="none" stroke-width="1px">5e-3</text><text x="0" y="124.47968750000001" dx="0em" dy="0.3em" style="text-anchor: end; visibility: inherit; font-family: &quot;Helvetica Neue&quot;, sans-serif; font-size: 12px; font-weight: 200;" fill="rgb(50, 49, 63)" stroke="none" stroke-width="1px">0.01</text><text x="0" y="106.69687499999999" dx="0em" dy="0.3em" style="text-anchor: end; visibility: hidden; font-family: &quot;Helvetica Neue&quot;, sans-serif; font-size: 12px; font-weight: 200;" fill="rgb(50, 49, 63)" stroke="none" stroke-width="1px">0.015</text><text x="0" y="88.91406249999999" dx="0em" dy="0.3em" style="text-anchor: end; visibility: inherit; font-family: &quot;Helvetica Neue&quot;, sans-serif; font-size: 12px; font-weight: 200;" fill="rgb(50, 49, 63)" stroke="none" stroke-width="1px">0.02</text><text x="0" y="71.13124999999998" dx="0em" dy="0.3em" style="text-anchor: end; visibility: hidden; font-family: &quot;Helvetica Neue&quot;, sans-serif; font-size: 12px; font-weight: 200;" fill="rgb(50, 49, 63)" stroke="none" stroke-width="1px">0.025</text><text x="0" y="53.3484375" dx="0em" dy="0.3em" style="text-anchor: end; visibility: inherit; font-family: &quot;Helvetica Neue&quot;, sans-serif; font-size: 12px; font-weight: 200;" fill="rgb(50, 49, 63)" stroke="none" stroke-width="1px">0.03</text><text x="0" y="35.56562499999998" dx="0em" dy="0.3em" style="text-anchor: end; visibility: hidden; font-family: &quot;Helvetica Neue&quot;, sans-serif; font-size: 12px; font-weight: 200;" fill="rgb(50, 49, 63)" stroke="none" stroke-width="1px">0.035</text><text x="0" y="17.782812500000006" dx="0em" dy="0.3em" style="text-anchor: end; visibility: inherit; font-family: &quot;Helvetica Neue&quot;, sans-serif; font-size: 12px; font-weight: 200;" fill="rgb(50, 49, 63)" stroke="none" stroke-width="1px">0.04</text><text x="0" y="0" dx="0em" dy="0.3em" style="text-anchor: end; visibility: hidden; font-family: &quot;Helvetica Neue&quot;, sans-serif; font-size: 12px; font-weight: 200;" fill="rgb(50, 49, 63)" stroke="none" stroke-width="1px">0.045</text></g><line x1="58.59375" y1="0" x2="58.59375" y2="177.828125" fill="rgb(0, 0, 0)" stroke="rgb(204, 204, 204)" stroke-width="1px"></line></g></g><g transform="translate(58, 0)" clip-path="url(#clip_0)"><clipPath id="clip_0"><rect width="271" height="177"></rect></clipPath><g><g><g><line x1="0" y1="0" x2="0" y2="177.828125" fill="rgb(0, 0, 0)" stroke="rgb(60, 60, 60)" stroke-width="1px" opacity="0.25"></line><line x1="33.92578125" y1="0" x2="33.92578125" y2="177.828125" fill="rgb(0, 0, 0)" stroke="rgb(60, 60, 60)" stroke-width="1px" opacity="0.25"></line><line x1="67.8515625" y1="0" x2="67.8515625" y2="177.828125" fill="rgb(0, 0, 0)" stroke="rgb(60, 60, 60)" stroke-width="1px" opacity="0.25"></line><line x1="101.77734375" y1="0" x2="101.77734375" y2="177.828125" fill="rgb(0, 0, 0)" stroke="rgb(60, 60, 60)" stroke-width="1px" opacity="0.25"></line><line x1="135.703125" y1="0" x2="135.703125" y2="177.828125" fill="rgb(0, 0, 0)" stroke="rgb(60, 60, 60)" stroke-width="1px" opacity="0.25"></line><line x1="169.62890625" y1="0" x2="169.62890625" y2="177.828125" fill="rgb(0, 0, 0)" stroke="rgb(60, 60, 60)" stroke-width="1px" opacity="0.25"></line><line x1="203.5546875" y1="0" x2="203.5546875" y2="177.828125" fill="rgb(0, 0, 0)" stroke="rgb(60, 60, 60)" stroke-width="1px" opacity="0.25"></line><line x1="237.48046875" y1="0" x2="237.48046875" y2="177.828125" fill="rgb(0, 0, 0)" stroke="rgb(60, 60, 60)" stroke-width="1px" opacity="0.25"></line><line x1="271.40625" y1="0" x2="271.40625" y2="177.828125" fill="rgb(0, 0, 0)" stroke="rgb(60, 60, 60)" stroke-width="1px" opacity="0.25"></line></g><g><line x1="0" y1="177.828125" x2="271.40625" y2="177.828125" fill="rgb(0, 0, 0)" stroke="rgb(60, 60, 60)" stroke-width="1px" opacity="0.25"></line><line x1="0" y1="160.0453125" x2="271.40625" y2="160.0453125" fill="rgb(0, 0, 0)" stroke="rgb(60, 60, 60)" stroke-width="1px" opacity="0.25"></line><line x1="0" y1="142.2625" x2="271.40625" y2="142.2625" fill="rgb(0, 0, 0)" stroke="rgb(60, 60, 60)" stroke-width="1px" opacity="0.25"></line><line x1="0" y1="124.47968750000001" x2="271.40625" y2="124.47968750000001" fill="rgb(0, 0, 0)" stroke="rgb(60, 60, 60)" stroke-width="1px" opacity="0.25"></line><line x1="0" y1="106.69687499999999" x2="271.40625" y2="106.69687499999999" fill="rgb(0, 0, 0)" stroke="rgb(60, 60, 60)" stroke-width="1px" opacity="0.25"></line><line x1="0" y1="88.91406249999999" x2="271.40625" y2="88.91406249999999" fill="rgb(0, 0, 0)" stroke="rgb(60, 60, 60)" stroke-width="1px" opacity="0.25"></line><line x1="0" y1="71.13124999999998" x2="271.40625" y2="71.13124999999998" fill="rgb(0, 0, 0)" stroke="rgb(60, 60, 60)" stroke-width="1px" opacity="0.25"></line><line x1="0" y1="53.3484375" x2="271.40625" y2="53.3484375" fill="rgb(0, 0, 0)" stroke="rgb(60, 60, 60)" stroke-width="1px" opacity="0.25"></line><line x1="0" y1="35.56562499999998" x2="271.40625" y2="35.56562499999998" fill="rgb(0, 0, 0)" stroke="rgb(60, 60, 60)" stroke-width="1px" opacity="0.25"></line><line x1="0" y1="17.782812500000006" x2="271.40625" y2="17.782812500000006" fill="rgb(0, 0, 0)" stroke="rgb(60, 60, 60)" stroke-width="1px" opacity="0.25"></line><line x1="0" y1="0" x2="271.40625" y2="0" fill="rgb(0, 0, 0)" stroke="rgb(60, 60, 60)" stroke-width="1px" opacity="0.25"></line></g></g></g><g><g><line x1="0" y1="160.0453125" x2="271.40625" y2="160.0453125" fill="rgb(0, 0, 0)" stroke="rgb(153, 153, 153)" stroke-width="1.5px"></line></g></g><g><g><line x1="33.92578125" y1="0" x2="33.92578125" y2="177.828125" fill="rgb(0, 0, 0)" stroke="rgb(153, 153, 153)" stroke-width="1.5px"></line></g></g><g><g><g><g><g><path stroke="rgb(255, 112, 67)" stroke-width="2px" d="M37.335322265625,-74.13867220012304L39.031611328125,32.027110682902986L40.727900390624995,67.35247222975138L42.424189453124995,78.70587788854147L44.120478515625,83.95153764156555L45.816767578125,87.80183750491051L47.513056640625,90.22901615257199L49.209345703124995,90.18282954161539L50.905634765624995,92.20267160156324L52.601923828125,90.41428350590819L54.298212890625,95.06190408956091L55.994501953125,97.03837989811721L57.690791015624995,98.07386730506697L59.387080078124995,99.4667872886464L61.083369140625,99.5479122926475L62.779658203125,100.32039261401039L64.47594726562501,100.89390054069754L66.172236328125,100.92152176171679L67.86852539062501,103.2774242237242L69.564814453125,103.69863435602275L71.261103515625,103.89614641133572L72.95739257812501,105.30009230963913L74.653681640625,105.1158092246331L76.34997070312501,106.17463265152936L78.046259765625,106.2113841264182L79.742548828125,106.52236413622227L81.43883789062501,105.46450295851643L83.135126953125,106.06204684320534L84.83141601562501,106.32168942999819L86.527705078125,107.61533399671043L88.223994140625,107.52304282813367L89.92028320312501,108.30949766954697L91.616572265625,107.71303979379886L93.31286132812501,107.8655066903864L95.009150390625,108.65553140420201L96.705439453125,107.83733023926256L98.40172851562501,108.71420700632044L100.098017578125,108.76912102452157L101.79430664062501,109.94666712638941L103.490595703125,109.6130784022173L105.186884765625,110.30821944245653L106.88317382812501,110.55166850126061L108.579462890625,110.58118745519064L110.27575195312501,109.67972016771948L111.972041015625,110.07842759313202L113.668330078125,-5848.959928381675L118.75719726562501,-50.958721309793134L120.453486328125,62.50096638412401L122.149775390625,95.72986159500023L123.84606445312501,106.38920147167163L125.542353515625,109.24427274176512L127.23864257812501,111.81268312142362L128.934931640625,109.05640058671186L130.631220703125,111.32335029160973L132.327509765625,111.55581732970423L134.023798828125,112.0454446807699L135.720087890625,111.92017851093554L137.41637695312502,112.94198306443403L139.112666015625,112.80443317031231L140.808955078125,112.51341860232355L142.505244140625,112.73324954948883L144.201533203125,110.98377672561989L145.89782226562502,111.93962087761052L147.594111328125,110.00558857904113L149.290400390625,110.79262897516224L150.986689453125,111.96390802588432L152.682978515625,113.22129977249483L154.37926757812502,112.3619930352639L156.075556640625,112.62150253850186L157.771845703125,112.37365955994906L159.468134765625,111.91618802121158L161.164423828125,112.33608884315407L162.86071289062502,113.04229014008635L164.557001953125,113.17376415193527L166.253291015625,112.74008603725902L167.949580078125,113.03421492674298L169.645869140625,113.2612644280863L171.34215820312502,113.14649621271333L173.038447265625,113.2325780741166L174.734736328125,111.23623195597884L176.431025390625,113.07210558607005L178.127314453125,110.1321698157184L179.82360351562502,112.16377211201556L181.519892578125,113.4526069551767L183.216181640625,113.2603410124017L184.912470703125,113.04895329458915L186.608759765625,113.32237143456179L188.30504882812502,114.2987330007372L190.001337890625,113.380100284503L191.697626953125,113.88447164133825L193.393916015625,114.05597122798352L195.090205078125,114.89360775658437L196.78649414062502,113.82142175943346L198.482783203125,113.9504884589619L200.179072265625,114.52937617298682L201.875361328125,113.85547050614213L203.571650390625,113.77550140233754L205.26793945312502,113.402445522488L206.964228515625,113.45632131416869L208.660517578125,114.48429047917404L210.356806640625,114.4091637817479L212.053095703125,114.4982601222325L213.74938476562502,114.85659964041244L215.445673828125,114.26009582839231L217.141962890625,114.95719621217606L218.838251953125,114.73388610681644L220.534541015625,115.10102588455183L222.23083007812502,114.46400113476088L223.927119140625,114.3119554143868L225.623408203125,114.43929877383061L227.319697265625,114.10693148011984L229.015986328125,113.74126921160571L230.71227539062502,114.64308017585041L232.408564453125,115.19354056283251L234.104853515625,114.8248338374867L235.801142578125,114.54848722961891L237.497431640625,113.71691178310222L239.19372070312502,114.96368537263066L240.890009765625,114.57798619244589L242.586298828125,115.34950368941026L244.282587890625,115.64429654065741L245.978876953125,115.19315330142501L247.67516601562502,114.94126747228214L249.371455078125,114.60979388271625L251.067744140625,113.9538355482952L252.764033203125,114.82827129989793" style="fill: none;" fill="none"></path></g></g></g></g><g opacity="0.20000000298023224"><g><g><g><path stroke="rgb(255, 112, 67)" stroke-width="2px" d="M33.942744140624995,-2122.374778085947L35.639033203125,55.99384694898036L37.335322265625,71.16282158487009L39.031611328125,76.2982421451248L40.727900390624995,82.36928342331665L42.424189453124995,83.55979940984396L44.120478515625,86.19803864173589L45.816767578125,89.45160513466689L47.513056640625,91.26916732420213L49.209345703124995,90.16303566938731L50.905634765624995,93.06831308712717L52.601923828125,89.64783282265998L54.298212890625,97.0537404240109L55.994501953125,97.88544082387816L57.690791015624995,98.51764760110527L59.387080078124995,100.06375298732891L61.083369140625,99.58268015135545L62.779658203125,100.65145560845266L64.47594726562501,101.13968965203966L66.172236328125,100.93335942786652L67.86852539062501,104.28709670740645L69.564814453125,103.87915298414882L71.261103515625,103.98079443504102L72.95739257812501,105.90178340891143L74.653681640625,105.03683075963053L76.34997070312501,106.62841412019915L78.046259765625,106.22713475851342L79.742548828125,106.65564128328114L81.43883789062501,105.0111338823568L83.135126953125,106.31813707950059L84.83141601562501,106.43296482433797L86.527705078125,108.16975309672998L88.223994140625,107.4834894701722L89.92028320312501,108.64654974443837L91.616572265625,107.45741498990682L93.31286132812501,107.93084964606678L95.009150390625,108.99411342440871L96.705439453125,107.48667259714566L98.40172851562501,109.09001133505953L100.098017578125,108.7926556037506L101.79430664062501,110.45132974147563L103.490595703125,109.47011180614354L105.186884765625,110.60613703113049L106.88317382812501,110.65600381217664L108.579462890625,110.59383843544637L110.27575195312501,109.29337704451754L111.972041015625,110.24930220402311L113.668330078125,-8402.833509513735L115.36461914062501,110.39078739514807L117.060908203125,109.93605733630247L118.75719726562501,109.88857872856315L120.453486328125,111.12654682437423L122.149775390625,109.97081668537575L123.84606445312501,110.95748999024508L125.542353515625,110.46787471466232L127.23864257812501,112.91343042699154L128.934931640625,107.87513664326397L130.631220703125,112.29490016513736L132.327509765625,111.65544606031617L134.023798828125,112.25528497408376L135.720087890625,111.86649300957797L137.41637695312502,113.37989930164767L139.112666015625,112.74548321568872L140.808955078125,112.38869807318551L142.505244140625,112.82746281255967L144.201533203125,110.23400265824748L145.89782226562502,112.34926837132079L147.594111328125,109.17671759393997L149.290400390625,111.12993200207129L150.986689453125,112.46588476190809L152.682978515625,113.76018194961361L154.37926757812502,111.9937187193078L156.075556640625,112.73272089703241L157.771845703125,112.26744114056928L159.468134765625,111.72012879032408L161.164423828125,112.51604633827228L162.86071289062502,113.34494783877162L164.557001953125,113.2301101570134L166.253291015625,112.55422398811206L167.949580078125,113.16027016509324L169.645869140625,113.35857135723344L171.34215820312502,113.09730983469635L173.038447265625,113.26947030043229L174.734736328125,110.38065504820551L176.431025390625,113.85890857039485L178.127314453125,108.87219734271056L179.82360351562502,113.03445881042862L181.519892578125,114.00496474510291L183.216181640625,113.17794132264098L184.912470703125,112.95835855838376L186.608759765625,113.43955063740722L188.30504882812502,114.71717367195524L190.001337890625,112.98640054897405L191.697626953125,114.10063079426763L193.393916015625,114.12947105083148L195.090205078125,115.25259484027046L196.78649414062502,113.36191347494022L198.482783203125,114.00580275875981L200.179072265625,114.77747090756893L201.875361328125,113.56665379178011L203.571650390625,113.74122892927844L205.26793945312502,113.2425644311239L206.964228515625,113.4794109391747L208.660517578125,114.92484869274776L210.356806640625,114.37696662570815L212.053095703125,114.53644426815444L213.74938476562502,115.01017371963243L215.445673828125,114.00445133752655L217.141962890625,115.25595351951196L218.838251953125,114.63818177594803L220.534541015625,115.25837150358129L222.23083007812502,114.19099052770761L223.927119140625,114.24679296279791L225.623408203125,114.49387449930654L227.319697265625,113.9644883542438L229.015986328125,113.58455681081395L230.71227539062502,115.02957058909814L232.408564453125,115.4294521572534L234.104853515625,114.66681666948134L235.801142578125,114.43005296910414L237.497431640625,113.36052230602363L239.19372070312502,115.49801691100001L240.890009765625,114.41268654379527L242.586298828125,115.68015404525212L244.282587890625,115.77063633404904L245.978876953125,114.99980619889683L247.67516601562502,114.8333164026495L249.371455078125,114.46773377290228L251.067744140625,113.67271054782904L252.764033203125,115.20302947915624" style="fill: none;" fill="none"></path></g></g></g></g></g></g><g transform="translate(58, 177)" clip-path="url(#clip_1)"><clipPath id="clip_1"><rect width="271" height="22"></rect></clipPath><g><g><line x1="0" y1="0" x2="0" y2="5" style="visibility: inherit;" fill="rgb(0, 0, 0)" stroke="rgb(204, 204, 204)" stroke-width="1px"></line><line x1="33.92578125" y1="0" x2="33.92578125" y2="5" style="visibility: inherit;" fill="rgb(0, 0, 0)" stroke="rgb(204, 204, 204)" stroke-width="1px"></line><line x1="67.8515625" y1="0" x2="67.8515625" y2="5" style="visibility: inherit;" fill="rgb(0, 0, 0)" stroke="rgb(204, 204, 204)" stroke-width="1px"></line><line x1="101.77734375" y1="0" x2="101.77734375" y2="5" style="visibility: inherit;" fill="rgb(0, 0, 0)" stroke="rgb(204, 204, 204)" stroke-width="1px"></line><line x1="135.703125" y1="0" x2="135.703125" y2="5" style="visibility: inherit;" fill="rgb(0, 0, 0)" stroke="rgb(204, 204, 204)" stroke-width="1px"></line><line x1="169.62890625" y1="0" x2="169.62890625" y2="5" style="visibility: inherit;" fill="rgb(0, 0, 0)" stroke="rgb(204, 204, 204)" stroke-width="1px"></line><line x1="203.5546875" y1="0" x2="203.5546875" y2="5" style="visibility: inherit;" fill="rgb(0, 0, 0)" stroke="rgb(204, 204, 204)" stroke-width="1px"></line><line x1="237.48046875" y1="0" x2="237.48046875" y2="5" style="visibility: inherit;" fill="rgb(0, 0, 0)" stroke="rgb(204, 204, 204)" stroke-width="1px"></line><line x1="271.40625" y1="0" x2="271.40625" y2="5" style="visibility: inherit;" fill="rgb(0, 0, 0)" stroke="rgb(204, 204, 204)" stroke-width="1px"></line></g><g transform="translate(0, 8)"><text x="0" y="0" dx="0em" dy="0.95em" style="text-anchor: middle; visibility: hidden; font-family: &quot;Helvetica Neue&quot;, sans-serif; font-size: 12px; font-weight: 200;" fill="rgb(50, 49, 63)" stroke="none" stroke-width="1px">-2k</text><text x="33.92578125" y="0" dx="0em" dy="0.95em" style="text-anchor: middle; visibility: inherit; font-family: &quot;Helvetica Neue&quot;, sans-serif; font-size: 12px; font-weight: 200;" fill="rgb(50, 49, 63)" stroke="none" stroke-width="1px">0</text><text x="67.8515625" y="0" dx="0em" dy="0.95em" style="text-anchor: middle; visibility: inherit; font-family: &quot;Helvetica Neue&quot;, sans-serif; font-size: 12px; font-weight: 200;" fill="rgb(50, 49, 63)" stroke="none" stroke-width="1px">2k</text><text x="101.77734375" y="0" dx="0em" dy="0.95em" style="text-anchor: middle; visibility: inherit; font-family: &quot;Helvetica Neue&quot;, sans-serif; font-size: 12px; font-weight: 200;" fill="rgb(50, 49, 63)" stroke="none" stroke-width="1px">4k</text><text x="135.703125" y="0" dx="0em" dy="0.95em" style="text-anchor: middle; visibility: inherit; font-family: &quot;Helvetica Neue&quot;, sans-serif; font-size: 12px; font-weight: 200;" fill="rgb(50, 49, 63)" stroke="none" stroke-width="1px">6k</text><text x="169.62890625" y="0" dx="0em" dy="0.95em" style="text-anchor: middle; visibility: inherit; font-family: &quot;Helvetica Neue&quot;, sans-serif; font-size: 12px; font-weight: 200;" fill="rgb(50, 49, 63)" stroke="none" stroke-width="1px">8k</text><text x="203.5546875" y="0" dx="0em" dy="0.95em" style="text-anchor: middle; visibility: inherit; font-family: &quot;Helvetica Neue&quot;, sans-serif; font-size: 12px; font-weight: 200;" fill="rgb(50, 49, 63)" stroke="none" stroke-width="1px">10k</text><text x="237.48046875" y="0" dx="0em" dy="0.95em" style="text-anchor: middle; visibility: inherit; font-family: &quot;Helvetica Neue&quot;, sans-serif; font-size: 12px; font-weight: 200;" fill="rgb(50, 49, 63)" stroke="none" stroke-width="1px">12k</text><text x="271.40625" y="0" dx="0em" dy="0.95em" style="text-anchor: middle; visibility: hidden; font-family: &quot;Helvetica Neue&quot;, sans-serif; font-size: 12px; font-weight: 200;" fill="rgb(50, 49, 63)" stroke="none" stroke-width="1px">14k</text></g><line x1="0" y1="0" x2="271.40625" y2="0" fill="rgb(0, 0, 0)" stroke="rgb(204, 204, 204)" stroke-width="1px"></line></g></g></g></g></svg>